<svg width="145" height="48" viewBox="0 0 145 48" fill="none" xmlns="http://www.w3.org/2000/svg">
<path d="M125.563 0.317886C115.178 0.317886 106.808 8.68874 106.808 19.0728C106.808 29.457 115.178 37.8278 125.563 37.8278C135.947 37.8278 144.318 29.457 144.318 19.0728C144.318 8.7947 135.841 0.317886 125.563 0.317886ZM125.563 31.0464C118.993 31.0464 113.695 25.7483 113.695 19.1788C113.695 12.6093 118.993 7.31126 125.563 7.31126C132.132 7.31126 137.43 12.6093 137.43 19.1788C137.43 25.6424 132.132 31.0464 125.563 31.0464Z" fill="#FEE72F"/>
<path d="M57.8545 0.847685C57.2188 0.317884 56.3711 0 55.5234 0C54.6757 0 53.828 0.317884 53.1923 0.847685C52.4505 1.48345 52.1327 2.33113 52.1327 3.39073V20.8742C52.1327 27.8675 46.8347 30.9404 41.8545 30.9404C36.8744 30.9404 31.5764 27.7616 31.5764 20.8742V3.49669C31.5764 2.54305 31.1525 1.69536 30.5168 1.0596C29.881 0.529801 29.0333 0.211921 28.1857 0.211921C27.338 0.211921 26.4903 0.529801 25.8545 1.0596C25.1128 1.69536 24.7949 2.54305 24.7949 3.49669V21.0861C24.7949 32.2119 33.4837 37.9338 41.9605 37.9338C46.3049 37.9338 50.6492 36.3444 53.7221 33.6954C57.2188 30.6225 59.126 26.2781 59.126 21.0861V3.39073C58.9141 2.33113 58.5962 1.48345 57.8545 0.847685Z" fill="white"/>
<path d="M97.8008 0.317892C96.5293 0.317892 95.4697 0.95365 94.728 2.11921L83.0723 20.4503L71.3107 2.11921C70.675 0.95365 69.5094 0.211929 68.2379 0.211929C66.6485 0.211929 64.9531 1.48345 64.9531 3.81458V34.543C64.9531 35.6027 65.377 36.4503 66.0127 37.0861C66.6485 37.6159 67.4962 37.9338 68.3439 37.9338C69.1915 37.9338 70.0392 37.6159 70.675 37.0861C71.4167 36.4503 71.7346 35.6027 71.7346 34.543V15.2583L79.8935 27.9735C80.5293 29.1391 81.6948 29.8808 82.9664 29.8808C84.2379 29.8808 85.4035 29.1391 86.0392 27.9735L94.1982 15.1523V34.4371C94.1982 35.4967 94.622 36.3444 95.2578 36.9801C95.8935 37.5099 96.7412 37.8278 97.5889 37.8278C98.4366 37.8278 99.2843 37.5099 99.92 36.9801C100.662 36.3444 100.98 35.4967 100.98 34.4371V3.70862C101.086 1.80133 99.7081 0.317892 97.8008 0.317892Z" fill="white"/>
<path d="M139.338 42.8079C139.338 41.0066 137.854 39.5232 136.053 39.5232C135.629 39.5232 135.311 39.6291 134.887 39.7351C134.676 39.841 134.464 39.947 134.252 39.947C131.497 40.9006 128.636 41.5364 125.563 41.5364C122.596 41.5364 119.735 41.0066 117.086 40.053C116.768 39.947 116.556 39.841 116.238 39.7351C115.815 39.6291 115.497 39.5232 115.073 39.5232C113.272 39.5232 111.788 41.0066 111.788 42.8079C111.788 44.1854 112.636 45.351 113.801 45.7748H113.907C114.225 45.8808 114.437 45.9867 114.755 46.0927C118.146 47.3642 121.748 48 125.563 48C129.377 48 132.98 47.3642 136.371 46.0927C136.689 45.9867 137.007 45.8808 137.324 45.7748C138.49 45.351 139.338 44.1854 139.338 42.8079Z" fill="white"/>
<path d="M18.543 3.28478C18.4371 1.58941 16.9536 0.211929 15.2583 0.211929H15.0464C13.6689 0.31789 12.3974 1.37749 12.0795 2.75498L11.9735 2.86094V24.053C11.9735 28.5033 7.41722 31.5762 3.28477 31.5762C1.48345 31.5762 0 33.0596 0 34.8609C0 36.6623 1.48345 38.1457 3.28477 38.1457C7.52318 38.1457 11.7616 36.3444 14.7285 33.4834C17.2715 30.9404 18.649 27.6556 18.649 24.159V3.4967L18.543 3.28478Z" fill="white"/>
</svg>
